<?xml version="1.0" encoding="UTF-8" standalone="no"?>
<!-- Created with Inkscape (http://www.inkscape.org/) -->

<svg
   xmlns:dc="http://purl.org/dc/elements/1.1/"
   xmlns:cc="http://creativecommons.org/ns#"
   xmlns:rdf="http://www.w3.org/1999/02/22-rdf-syntax-ns#"
   xmlns:svg="http://www.w3.org/2000/svg"
   xmlns="http://www.w3.org/2000/svg"
   xmlns:sodipodi="http://sodipodi.sourceforge.net/DTD/sodipodi-0.dtd"
   xmlns:inkscape="http://www.inkscape.org/namespaces/inkscape"
   width="168.27853mm"
   height="43.623066mm"
   viewBox="0 0 168.27853 43.623066"
   version="1.1"
   id="svg8"
   inkscape:version="0.92.3 (2405546, 2018-03-11)"
   sodipodi:docname="logo.svg">
  <defs
     id="defs2">
    <clipPath
       clipPathUnits="userSpaceOnUse"
       id="b">
      <rect
         id="rect4706"
         x="-4269.2002"
         y="-9574.5996"
         width="5000"
         height="5000"
         style="fill:#c8b7b7" />
    </clipPath>
    <pattern
       height="600.00016"
       patternTransform="translate(-160.36 244.35)"
       patternUnits="userSpaceOnUse"
       width="600.00002"
       id="a">
      <g
         id="g4747"
         transform="translate(686.99 6.9938)">
        <rect
           id="rect4709"
           x="-686.99"
           y="-6.9938"
           width="600"
           height="600" />
        <g
           id="g4745"
           clip-path="url(#b)"
           transform="matrix(.12 0 0 .12 -174.69 1142)">
          <path
             id="path4711"
             fill="#fb7603"
             d="m545.35-8708c14.188 44.562 33.45 88.85 63.775 125.18 42.688 55.662 103.05 95.6 166.99 123.06 137.36 56.062 297.55 57.338 434.67-0.15 106.5-43.088 198.86-130.56 228.48-243.88 3.55-8.4 5 8.7 5.275 10.538 16.338 128.1-66.7 247.75-171.3 313.31-9.1875 7.525-21.2 11.3-30.088 18.888-13.05 90.65-17.575 182.45-20.838 273.91-2.7 97.775-7.7125 199.08 25.675 292.81 71.712 41.45 135.5 100.84 170.92 176.7 24.125 51.738 35.35 113.04 22.475 168.22-19.738-70.9-62.75-139.48-122.78-185.4-96.488-76.588-222.6-109.51-344.54-105.56-129.01 3.3875-261.97 50.775-350.62 146.9-36.462 40.725-62.812 90.088-77.175 142.81-4.5125 1.325-2.0625-4.925-2.85-7.6-12.6-72.362 10.662-146.62 51.512-206.24 36.325-53.8 87.3-97.525 143.56-128.98 32.85-92.05 28.662-191.55 26.475-287.64-3.6625-93.712-6.975-188.25-21.625-280.91-68.375-37.088-128.95-92.112-166.55-160.99-30.225-55.838-45.675-122.28-31.45-185m349.16 400.26c-12.962 116.59-16.288 233.96-15.462 351.19 1.275 35.988 4.625 72.012 11.588 107.39 67.788-12.125 137.51-10.862 205.21-0.4625 15.75-67.638 11.825-137.65 11.775-206.52-2.4375-83.8-6.2875-167.79-15.312-251.17-65.4 8.9125-132.32 9.5125-197.8-0.4125z" />
          <path
             id="path4713"
             fill="#fb7603"
             d="m-4454.6-8708c14.188 44.562 33.45 88.85 63.775 125.18 42.688 55.662 103.05 95.6 166.99 123.06 137.36 56.062 297.55 57.338 434.67-0.15 106.5-43.088 198.86-130.56 228.48-243.88 3.55-8.4 5 8.7 5.275 10.538 16.338 128.1-66.7 247.75-171.3 313.31-9.1875 7.525-21.2 11.3-30.088 18.888-13.05 90.65-17.575 182.45-20.838 273.91-2.7 97.775-7.7125 199.08 25.675 292.81 71.712 41.45 135.5 100.84 170.92 176.7 24.125 51.738 35.35 113.04 22.475 168.22-19.738-70.9-62.75-139.48-122.78-185.4-96.488-76.588-222.6-109.51-344.54-105.56-129.01 3.3875-261.97 50.775-350.62 146.9-36.462 40.725-62.812 90.088-77.175 142.81-4.5125 1.325-2.0625-4.925-2.85-7.6-12.6-72.362 10.662-146.62 51.512-206.24 36.325-53.8 87.3-97.525 143.56-128.98 32.85-92.05 28.662-191.55 26.475-287.64-3.6625-93.712-6.975-188.25-21.625-280.91-68.375-37.088-128.95-92.112-166.55-160.99-30.225-55.838-45.675-122.28-31.45-185m349.16 400.26c-12.962 116.59-16.288 233.96-15.462 351.19 1.275 35.988 4.625 72.012 11.588 107.39 67.788-12.125 137.51-10.862 205.21-0.4625 15.75-67.638 11.825-137.65 11.775-206.52-2.4375-83.8-6.2875-167.79-15.312-251.17-65.4 8.9125-132.32 9.5125-197.8-0.4125z" />
          <path
             id="path4715"
             fill="#de0101"
             d="m-4051.4-7443.2c113.64-9.9375 226.9 55.2 278.8 155.99 4.05 3.875 3.5125 12.988 10.188 13.162 22.738-41.088 50.425-80.688 88.275-109.35 110.91-88.575 290.98-81.525 387.52 25.262 49.175 49.512 74.275 120.82 70.512 190.24-4.075 58.088-29.9 114.19-71.212 155.2-1.5875 0.5125-4.8875 2.0375-3.425-1.0125 12.475-43.175 18.962-89.062 10.9-133.66-8.95-52.038-38.225-103.12-81.812-132.02-78.412-54.625-198.49-40.075-259.51 33.95-33.162 40.075-54.1 88.825-67.838 138.56-17.2 220.81-7.35 443.61 21.825 663.09-63.562-0.525-127.24 0.6125-190.72-0.55 27.562-208.18 40.862-419.35 29.4-629.19-14.912-62.412-37.05-125.24-79.012-174.92-33.025-39.25-83.388-61.362-134.3-63.175-62.788-7.9625-124.15 26.862-159.08 77.7-46.312 64.638-55.025 151.04-32.512 226.29-33.512-32.7-55.225-76.262-64.212-121.96-19.862-101.28 26.1-211.9 112.14-268.89 39.175-27.425 86.4-42.362 134.08-44.7z" />
          <path
             id="path4717"
             fill="#de0101"
             d="m948.58-7443.2c113.64-9.9375 226.9 55.2 278.8 155.99 4.05 3.875 3.5125 12.988 10.188 13.162 22.738-41.088 50.425-80.688 88.275-109.35 110.91-88.575 290.98-81.525 387.52 25.262 49.175 49.512 74.275 120.82 70.512 190.24-4.075 58.088-29.9 114.19-71.212 155.2-1.5875 0.5125-4.8875 2.0375-3.425-1.0125 12.475-43.175 18.962-89.062 10.9-133.66-8.95-52.038-38.225-103.12-81.812-132.02-78.412-54.625-198.49-40.075-259.51 33.95-33.162 40.075-54.1 88.825-67.838 138.56-17.2 220.81-7.35 443.61 21.825 663.09-63.562-0.525-127.24 0.6125-190.72-0.55 27.562-208.18 40.862-419.35 29.4-629.19-14.912-62.412-37.05-125.24-79.012-174.92-33.025-39.25-83.388-61.362-134.3-63.175-62.788-7.9625-124.15 26.862-159.08 77.7-46.312 64.638-55.025 151.04-32.512 226.29-33.512-32.7-55.225-76.262-64.212-121.96-19.862-101.28 26.1-211.9 112.14-268.89 39.175-27.425 86.4-42.362 134.08-44.7z" />
          <path
             id="path4719"
             fill="#f75500"
             d="m-3148.9-10372c48.262 2.313 97.075-1.2 145.06 3.05-19.775 158.52-107.61 312.98-247.61 394.6-5.475 1.325-4.4875 8.1625 0.1875 9.6 131.56 73.362 211.12 228.11 194.86 377.85-9.2125 99.45-59.138 194.02-135.09 258.68-89.762 78.3-216.78 111.58-333.38 87.05-114.21-22.012-215.69-98.962-269.55-201.69-54.038-101-60-226.68-15.088-332.16 32.538-78.612 91.288-146.14 164.81-188.94 4.45-3.1875-0.975-7.2125-4.3625-8.05-143.41-78.613-233.69-236.96-242.38-398.68 49.088-0.313 98.175 0.2 147.26-0.25-8.3375 87.975 20.688 178.76 78.625 245.45 47.275 54.925 115.01 93.187 187.46 101.26 78.338 10.95 159.64-14.262 220.94-63.437 84.175-65.825 126.6-179.16 108.24-284.34m-315.76 440.51c-63.338 6.25-125.98 31.025-173.09 74.475-83.338 73.7-115.12 199.78-75.338 304.09 24.362 71 78.938 130.45 147.22 161.51 82.575 38.888 184.56 33.75 262.71-13.488 47.675-27.662 86.438-70.125 110.19-119.8 45.888-92.188 34.912-209.29-26.812-291.59-55.438-75.9-151.25-120.08-244.89-115.2z" />
          <path
             id="path4721"
             fill="#f75500"
             d="m-3148.9-5372.1c48.262 2.313 97.075-1.2 145.06 3.05-19.775 158.52-107.61 312.98-247.61 394.6-5.475 1.325-4.4875 8.1625 0.1875 9.6 131.56 73.362 211.12 228.11 194.86 377.85-9.2125 99.45-59.138 194.02-135.09 258.68-89.762 78.3-216.78 111.58-333.38 87.05-114.21-22.012-215.69-98.962-269.55-201.69-54.038-101-60-226.68-15.088-332.16 32.538-78.612 91.288-146.14 164.81-188.94 4.45-3.1875-0.975-7.2125-4.3625-8.05-143.41-78.613-233.69-236.96-242.38-398.68 49.088-0.313 98.175 0.2 147.26-0.25-8.3375 87.975 20.688 178.76 78.625 245.45 47.275 54.925 115.01 93.187 187.46 101.26 78.338 10.95 159.64-14.262 220.94-63.437 84.175-65.825 126.6-179.16 108.24-284.34m-315.76 440.51c-63.338 6.25-125.98 31.025-173.09 74.475-83.338 73.7-115.12 199.78-75.338 304.09 24.362 71 78.938 130.45 147.22 161.51 82.575 38.888 184.56 33.75 262.71-13.488 47.675-27.662 86.438-70.125 110.19-119.8 45.888-92.188 34.912-209.29-26.812-291.59-55.438-75.9-151.25-120.08-244.89-115.2z" />
          <path
             id="path4723"
             fill="#83fb00"
             d="m-2509.2-9968.4c77.912 22.162 151.4 71.825 189.77 144.99 1 4.025 7.6 5.45 9.3875 1.625 76.962-120.35 278.52-131.64 361.16-12.238 9.125 4.0375 11.775-10.462 18.55-14.475 86.888-103.68 272.19-98.05 349.94 13.625 8.5 13.95 15.438-6.9625 22.512-11.788 73.038-96.15 221.35-116.58 321.99-52.788 39.262 24.038 68.912 60.912 89.7 101.51 37.388 77.125 48.838 165.54 40.525 250.39-11.875 180.88-71.362 358.1-170.09 509.92-4.0625 8.0625-17.512 19.65-6.1 27.8 49.538 49.612 106.28 93.338 168.21 125.8 0.9375 1.7125 0.825 3.8875-0.2625 5.55-26 44.838-52.65 89.238-78.562 134.12-0.9375 1.4625-1.9625 3.6125-4.075 3.2-59.55-45.712-112.85-99.25-160.72-156.96-2.9625-2.5-5.3625-8.3875-10.025-6.4625-41.75 55.725-86.562 109.18-134.11 160.01-4.9875 4.425-8.9 13.05-16 13.2-30.4-50.738-59.95-101.9-90.038-152.82-1.45-2.7625-4.6-6.825-2.2625-9.8 62.75-17.938 118.79-54.725 168.3-96.762 3.45-3.0625 9.775-7.5375 5.8875-12.638-116.63-175.48-176.61-386.82-173.96-597.34-10.9-4.4125-27.05-0.1125-39.662-1.7875 1.725-41.55 12.9-82.062 24.462-121.79-5.8875-46.45-41.638-92.762-90.075-100.04-39.6-6.5625-87.575 0.2875-113.35 34.388-35.112 52.475-31.038 122.15-12.538 179.99-15.288 1.8-30.775 1.8625-46 4.1875 3.9 118.3 15.275 236.66 34.8 353.41-54.462-0.1375-108.92 0.088-163.39-0.1-4.9 0.3-1.6375-5.9-1.375-8.625 18.412-111.19 28.475-223.74 33.425-336.21-15.788-1.175-31.375 2.975-47.112 2.2625 4.2-49.55 21.488-97 33.4-144.72-8.7-30.038-27.138-59.312-54.75-75.212-48.7-25.325-120.8-22.775-154.98 25.25-32.638 53.25-27.325 122.88-4.1875 178.38-12.988 10.712-51.712-7.4875-49.15 17.238 2.8 114.05 11.612 229.58 39.25 340.31-53.062 2.325-111.68 2.3875-164.49-0.037 24.95-112.4 36.95-228.2 37.725-342.98-17.175-1.775-34.625 1.45-51.8 3.0625 6.425-35.175 17.125-69.375 27.662-103.49 1.35-6.0875 6.475-12.262 3.3875-18.65-6.9875-18.838-16.725-37.238-31.038-51.525-23.7-30.15-71.237-39.625-103.17-17.075-2.05 0.7125-6.1625 5.7-6.575 1.45-0.525-61.788-0.1375-123.59-0.2-185.36m1143.2 156.67c-26.638 2.3-53.388 13.425-71 34.062-40.075 48.462-48.35 115.58-45.888 176.44-12.762-0.35-28.825-4.325-39.4 0.7625-0.4625 180.9 56.113 363.82 167.91 507.26 2.55 4.4125 7.025 1.15 8.55-2.05 100.75-142.16 150-318.59 145.41-492.22 0.15-39.438-7.3375-78.762-20.212-115.98-12.338-34.625-30.438-69.888-62.15-90.375-24.262-16.225-54.438-21.775-83.225-17.9z" />
          <path
             id="path4725"
             fill="#83fb00"
             d="m-2509.2-4968.4c77.912 22.162 151.4 71.825 189.77 144.99 1 4.025 7.6 5.45 9.3875 1.625 76.962-120.35 278.52-131.64 361.16-12.238 9.125 4.0375 11.775-10.462 18.55-14.475 86.888-103.68 272.19-98.05 349.94 13.625 8.5 13.95 15.438-6.9625 22.512-11.788 73.038-96.15 221.35-116.58 321.99-52.788 39.262 24.038 68.912 60.912 89.7 101.51 37.388 77.125 48.838 165.54 40.525 250.39-11.875 180.88-71.362 358.1-170.09 509.92-4.0625 8.0625-17.512 19.65-6.1 27.8 49.538 49.612 106.28 93.338 168.21 125.8 0.9375 1.7125 0.825 3.8875-0.2625 5.55-26 44.838-52.65 89.238-78.562 134.12-0.9375 1.4625-1.9625 3.6125-4.075 3.2-59.55-45.712-112.85-99.25-160.72-156.96-2.9625-2.5-5.3625-8.3875-10.025-6.4625-41.75 55.725-86.562 109.18-134.11 160.01-4.9875 4.425-8.9 13.05-16 13.2-30.4-50.738-59.95-101.9-90.038-152.82-1.45-2.7625-4.6-6.825-2.2625-9.8 62.75-17.938 118.79-54.725 168.3-96.762 3.45-3.0625 9.775-7.5375 5.8875-12.638-116.63-175.48-176.61-386.82-173.96-597.34-10.9-4.4125-27.05-0.1125-39.662-1.7875 1.725-41.55 12.9-82.062 24.462-121.79-5.8875-46.45-41.638-92.762-90.075-100.04-39.6-6.5625-87.575 0.2875-113.35 34.388-35.112 52.475-31.038 122.15-12.538 179.99-15.288 1.8-30.775 1.8625-46 4.1875 3.9 118.3 15.275 236.66 34.8 353.41-54.462-0.1375-108.92 0.088-163.39-0.1-4.9 0.3-1.6375-5.9-1.375-8.625 18.412-111.19 28.475-223.74 33.425-336.21-15.788-1.175-31.375 2.975-47.112 2.2625 4.2-49.55 21.488-97 33.4-144.72-8.7-30.038-27.138-59.312-54.75-75.212-48.7-25.325-120.8-22.775-154.98 25.25-32.638 53.25-27.325 122.88-4.1875 178.38-12.988 10.712-51.712-7.4875-49.15 17.238 2.8 114.05 11.612 229.58 39.25 340.31-53.062 2.325-111.68 2.3875-164.49-0.037 24.95-112.4 36.95-228.2 37.725-342.98-17.175-1.775-34.625 1.45-51.8 3.0625 6.425-35.175 17.125-69.375 27.662-103.49 1.35-6.0875 6.475-12.262 3.3875-18.65-6.9875-18.838-16.725-37.238-31.038-51.525-23.7-30.15-71.237-39.625-103.17-17.075-2.05 0.7125-6.1625 5.7-6.575 1.45-0.525-61.788-0.1375-123.59-0.2-185.36m1143.2 156.67c-26.638 2.3-53.388 13.425-71 34.062-40.075 48.462-48.35 115.58-45.888 176.44-12.762-0.35-28.825-4.325-39.4 0.7625-0.4625 180.9 56.113 363.82 167.91 507.26 2.55 4.4125 7.025 1.15 8.55-2.05 100.75-142.16 150-318.59 145.41-492.22 0.15-39.438-7.3375-78.762-20.212-115.98-12.338-34.625-30.438-69.888-62.15-90.375-24.262-16.225-54.438-21.775-83.225-17.9z" />
          <path
             id="path4727"
             fill="#fcff00"
             d="m400.87-6303.7c98.488-5.025 204.7 22.112 274.09 95.862 81.138 83.3 101.34 208.85 87.175 320.36-12.6 66.662-36.9 130.31-59.8 193.91-29.925 74.325-58.812 149.1-91.575 222.24-43.338 98.412-58.4 215.21-16.438 316.59 17.688 38.512 49.475 75.325 93.688 81.412 44.925 7.5 90.475-5.4875 130.76-24.975 3.45-1.975 10.212-6.575 11.875-0.1875 19.5 58.988 43.6 116.82 60.825 176.35-73.225 16.862-151.15 26.562-224.36 4.6375-71.962-20.088-134.25-71.238-168.78-137.45-65.35-129.38-49.475-286.49 6.1-416.46 61.75-123.91 125.03-248.39 162.64-382.36 21.15-77.05 14.412-162.28-22.812-233.35-17.688-31.762-43.075-59.912-75.462-77.025-47.663-26.188-104.31-30.638-157.58-26.675-57.888 4.6375-114.61 29.038-154.7 71.538-55.288 63.25-76.888 157.09-46.612 236.52 25.188 72.312 69.75 135.68 100.99 205.25 23.525 50.638 37.397 103.13 53.662 158.63 20.466 101.56 16.438 218.54-61.212 290.15-63 64.025-161.45 89.875-248.1 66.888-72.687-18.238-136.49-68.938-170.63-135.62-46.738-86.625-38.162-200.14 21.938-278.21 60.238-83.85 173.07-127.63 273.92-101.3 4.1375 1.45 5.925-2.9125 3.1-5.6875-44.138-66.512-89.937-135.02-107.01-214.25-25.9-136.35 36.587-286.91 156.51-358.34 50.112-31.012 109.29-45.362 167.79-48.438m-318.63 728.7c-47.975 4.025-93.487 31.862-117.57 73.725-27.138 44.688-29.275 103.26-6.5125 150.2 26.45 57.475 91.9 93.15 154.5 85.338 46.138-3.975 89.525-30.3 114.54-69.212 27.912-41.112 32.812-96.288 14.638-142.29-23.575-63.475-92.088-106-159.59-97.762z" />
          <path
             id="path4729"
             fill="#fcff00"
             d="m-4599.1-6303.7c98.488-5.025 204.7 22.112 274.09 95.862 81.138 83.3 101.34 208.85 87.175 320.36-12.6 66.662-36.9 130.31-59.8 193.91-29.925 74.325-58.812 149.1-91.575 222.24-43.338 98.412-58.4 215.21-16.438 316.59 17.688 38.512 49.475 75.325 93.688 81.412 44.925 7.5 90.475-5.4875 130.76-24.975 3.45-1.975 10.212-6.575 11.875-0.1875 19.5 58.988 43.6 116.82 60.825 176.35-73.225 16.862-151.15 26.562-224.36 4.6375-71.962-20.088-134.25-71.238-168.78-137.45-65.35-129.38-49.475-286.49 6.1-416.46 61.75-123.91 125.03-248.39 162.64-382.36 21.15-77.05 14.412-162.28-22.812-233.35-17.688-31.762-43.075-59.912-75.462-77.025-47.663-26.188-104.31-30.638-157.58-26.675-57.888 4.6375-114.61 29.038-154.7 71.538-55.288 63.25-76.888 157.09-46.612 236.52 25.188 72.312 69.75 135.68 100.99 205.25 23.525 50.638 37.397 103.13 53.662 158.63 20.466 101.56 16.438 218.54-61.212 290.15-63 64.025-161.45 89.875-248.1 66.888-72.688-18.238-136.49-68.938-170.62-135.62-46.738-86.625-38.162-200.14 21.938-278.21 60.238-83.85 173.08-127.63 273.92-101.3 4.1375 1.45 5.925-2.9125 3.1-5.6875-44.138-66.512-89.938-135.02-107.01-214.25-25.9-136.35 36.588-286.91 156.51-358.34 50.112-31.012 109.29-45.362 167.79-48.438m-318.65 728.78c-47.975 4.025-93.488 31.862-117.58 73.725-27.138 44.688-29.275 103.26-6.5125 150.2 26.45 57.475 91.9 93.15 154.5 85.338 46.138-3.975 89.525-30.3 114.54-69.212 27.912-41.112 32.812-96.288 14.638-142.29-23.575-63.475-92.088-106-159.59-97.762z" />
          <path
             id="path4731"
             fill="#bb2faa"
             d="m-1953.9-8591.4c0.825 0.088 2.475 0.275 3.2875 0.375 0.6375 47.962 0.1375 95.962 0.2625 143.95 0.05 6.325-10.125 0.2-12.95 1.8125-69.925-3.8125-137.18 27.825-188.45 73.4-80.625 74.138-128.9 180.51-139.84 288.7 63.275-3.55 126.7-8.5125 189.21-19.438-1.075 48.975-0.125 98-0.4875 147-64.025-8.9125-128.56-16.825-193.18-18.288 4.4875 97.65 46.125 194.25 115.62 262.29 48.538 47.225 108.8 82.112 173.78 101.16 3.5375-0.7875 8.15 3.25 5.7375 6.7625-18.3 43.65-36.838 87.225-55.538 130.69-72.6-38.825-140.94-87.538-195.65-149.45-88.788-96.688-137.14-226.04-143.81-356.39-54.1-0.6625-110.11-3.6625-162.89 1.075-14.688 140.36-69.212 280.45-169.81 381.52-71.362 72.938-169.56 123.8-272.91 129.36-0.075-48.688-0.2125-97.375 0.05-146.02 64.4 6.5 128.7-16.812 179.89-55.062 94.138-72.862 149.09-189.32 161.82-305.85-63.238 0.8125-126.65 9.475-189.04 17.762-0.65-48.512-0.2125-97.038-0.2125-145.54 64.212 8.1 128.75 16.425 193.54 18.425-4.675-95.6-43.8-189.95-111.28-258.39-50.975-51.512-116.11-88.675-185.96-107.72 16.912-40.4 34.225-80.612 51.4-120.92 2.4625-3.95 2.4375-12.35 8.45-12.8 125.58 65.162 235.25 167.94 290.89 300.4 27.925 64.45 41.562 134.24 45.962 204.12 54.175-0.1375 109.21 2.7 163.04-1.175 15.312-146.48 74.912-295.36 185.54-396.61 68.425-65.35 159.18-106.6 253.52-115.15z" />
          <path
             id="path4733"
             fill="#00e2ca"
             d="m-1346.4-8515c82.012 28.25 163.48 75.388 206.26 153.82 1.775 5.1125 6.95-0.375 8.95-2.675 46.138-61.675 123.21-96.962 199.9-95.025 70.712-3.6375 144.38 23.538 189.74 79.138 5.4375 8.275 12.588-3.4875 16.138-8.2625 73.962-83.15 203.31-98.538 302.31-55.238 61.312 27.675 104.12 85.462 123.9 148.61 30 98.312 20.6 204.52-6.675 302.41-27.738 111.72-66.412 223.64-59.925 340.4 3.875 80.738 50.412 163.15 127.74 193.54 62.362 26.038 137.82 2.2 178.61-50.275 1.75-5.525-0.2875-7.9125-6.125-7.15-44.113-8.075-86.775-22.762-127.13-42.112-6.525-1.075 0.4125-2.575 2.1375-2.9875 125.11-17.8 248.96-62.188 349.48-139.3-14.738 124.65 18.812 248.65 63.35 364 1.2 2.5 5.1375 9.65-0.5125 8.2875-41.15-28.575-80.588-60.4-112.9-98.938-2.8875-4.5-8.6125-1.0125-10.612 2.3625-45.362 50.975-102.89 92.85-168.81 112.48-85.863 28-183.29 13.35-257.54-37.562-50.8-33.162-90.362-81.712-116.28-136.22-31.038-63.875-38.075-136.98-33.2-207.01 8.525-106.92 44.775-208.7 73.725-311.18 27.412-94.938 44.812-204.71-2.525-296.06-28.2-57.45-103.12-71.312-158.92-50.438-25.65 8.075-46.588 28.475-56.75 53.238-17.2 46.512-14.012 99.338 4.2375 145.01-17.488 0.1625-37.4 1.3125-53.212 5.0875 3.5 116.79 16.4 233.48 37.1 348.51-59.5-0.725-118.99-0.05-178.46-0.3375 20.088-111.45 31.488-225.12 36.738-337.85-16.375-4.6125-36.35 3.5375-53.9 2.3 3.925-50.962 21.95-99.738 37.088-148.06-12.725-43.15-53.875-75.475-98.45-80.362-41.25-6.5375-89.038-1.3625-120.15 29.2-43.575 49.2-37.362 125.32-12.05 181.16-16.012-0.2875-31.738 3.8375-47.738 3.5375-4.5125-0.575-7.525 5.375-5.525 9.3 2.7875 114.58 12.912 229.9 42.5 340.99-59.5-0.325-119-0.225-178.49-0.062 29.125-110.6 40.075-225.7 41.75-339.58-18.525-1.4-37.038 3.6125-55.525 4.3125 6.225-36.675 17.8-72.338 29.55-107.62 2.5875-5.7375 6.1125-12.662 1.4375-18.3-14.6-32.238-40.912-62.462-77.212-69.1-25.975-7.275-52.062 4.8875-73.875 16.05-0.125-67.35 0.2-134.7-0.15-202.04z" />
          <path
             id="path4735"
             fill="#063daa"
             d="m-917.94-7559.7c1.625-0.9875 2.0875-0.5625 1.375 1.275-70.088 185.71-140.34 371.4-210.45 557.1-2.5 4-3.6-5.8-4.175-5.2375-15.062-50.162-30.5-100.21-45.862-150.26-1.525-4.4-5.7125-0.1625-8.0625 1.175-159.82 137.88-309.88 286.94-454.21 440.8-3.6875 5.2375-11.725 8.825-10.275 16.188 84.125 81.638 175.11 165.9 291.76 195.96 0.15 3.2-2.5125 5.2875-4.4875 7.3625-42.612 45.325-84.7 91.162-127.3 136.49-1.4875 2.8625-4.925 5.025-7.5625 2.15-37.75-107.74-120.69-189.19-203.52-262.75-5.375-5.0125-13.125-15.188-20.625-6.4-76.688 85.6-146.89 178.86-195.58 283.45-2.5875 3.875-3.85 18.288-11.438 13.15-48.362-45.1-96.825-89.912-145.08-135.06 1.7375-5.075 8.8-5.0375 12.712-8.15 102.3-56.112 190.62-133.94 271.31-217.49 5.7-5.5875-5.475-10.55-8.1375-13.975-83.425-70.85-170.4-138-264.25-194.52-1.525-1.4875-5.4375-2.4625-3.975-5.1375 39.112-42.212 78.288-84.412 117.49-126.56 2.275-3.15 4.8875-0.275 5.8 2.3375 63.875 90.5 137.8 173.3 215.34 252.12 3.4625 3.3125 6.825 8.5625 12.7 6.225 145.42-157.36 285.75-319.91 413.34-492.18 1.2-2.1 6.425-7.5375 1.3375-8.7875-52.562-13.975-109.82-22.788-159.98-38.412 180.84-83.138 361.26-167.09 541.8-250.86z" />
          <path
             id="path4737"
             fill="#00c403"
             d="m-2492.9-6418.7c-7.9206 0.018-15.841 0.3018-23.746 0.8555-137 5.775-266.94 95.787-317.71 223.51-40.288 97.112-30.325 220.51 43.75 299 2.2375 3.9875 13.55 9.0387 9.3125 13.889-108.46-24-216.26-52.314-324.88-75.701 0.075 50.75 0.1246 101.51-0.025 152.28 140.86-6.3875 281.82-11.226 422.6-17.613-9.9625-27.2-24.425-53.55-35.162-80.85-42.75-62.05-46.561-146.13-18.299-214.96 43.412-111.81 171.96-179.64 289.04-155.84 78.538 12.8 150.15 64.149 185.89 135.36 37.75 70.688 38.076 162.92-5.8867 230.81-13.175 27.925-27.239 56.813-37.826 85.338 140.64 7.0125 281.42 11.612 422.12 17.75 0.375-50.725-0.1859-101.45 0.2891-152.16-108.3 23.312-215.84 51.3-324 75.65-3.3625 0.7125-2.5504-4.1016-0.5879-5.2891 39.775-36.688 63.65-88.099 72.963-140.89 17.188-106.04-25.426-217.32-103.74-289.54-67.216-65.084-160.64-101.82-254.1-101.61zm-613.01 731.46c-0.5875 53.625 0.1008 107.3-0.3242 160.95 96.938-10.612 194.38-16.637 291.75-20.762 310.24-10.738 621.54-9.4371 930.85 20.838 0-53.662 0.1496-107.33-0.088-160.96-114.8 10.175-230.07 18.276-345.32 21.863-292.31 8.375-585.5 5.3992-876.86-21.926z" />
          <path
             id="path4739"
             fill="#710cb3"
             d="m588.15-9361.3c-1.4216 0.1277-1.8781 2.1558-2.5586 3.3847-42.65 83.45-130.56 148.18-227.15 144.14-88.988-0.25-169.16-57.2-212.43-132.66-3.5875-3.1875-5.1488-14.751-11.549-11.551-23.338 40.325-52.527 78.838-92.539 103.88-69.362 48.925-166.7 53.888-240.8 12.525-51.725-24.538-88.301-74.462-117.14-119.19-23.762 43.95-56.512 84.112-99.449 110.51-72.05 47.288-171.09 48.888-244.47 3.5-45.475-25.35-79.313-67.175-104.46-111.94-1.2625-2.9-5.2867-1.0242-5.0742 1.8008-24.438 51.425-15.763 113.02 9.8242 162.38 45.688 87.175 148.25 139.22 245.61 126.92 82.525-7.825 160.36-60.024 195.97-135.3 0.9-2.1875 3.8129-2.9633 5.7754-1.6758 26.062 58.838 79.111 103.63 139.49 124.4 113.5 42.738 255.16-11.587 306.09-122.64 0.7125-3.9125 6.3242-2.5 7.0742 0.75 37.225 78.9 120.33 131.16 208.1 135.74 88.288 5.3625 178.95-39.086 224.95-115.05 33.438-52.5 43.962-122.66 15.887-179.68-0.4453-0.2063-0.8243-0.2775-1.1523-0.248zm-1354.8 368.68c-0.2512 0.021-0.5239 0.1086-0.8223 0.2774-46.612 97.312 12.901 217.09 104.61 263.44 115.76 69.238 285.07 21.075 342.89-102.15 0.012-4.975 7.8258-6.075 8.9883-1.0625 46.025 96.638 161.32 151.55 265.8 130.9 76.188-12.438 145.22-62.826 178.85-132.58 5.6125-4.975 7.8379 2.6266 9.5254 6.4141 30.838 61.212 90.5 105.37 156.41 122.34 77.862 20.662 164.78 0.4508 225.93-51.699 65-54.375 102.63-151.5 65.213-231.94-3.0125-6.9-6.7129 3.2129-8.6504 6.0254-43.45 80.575-129.8 141.46-223.68 137.62-95.4 0.3-178.74-65.514-221.29-147.58-34.825 61.85-88.3 117.36-158.28 137.98-78.012 24.525-167.41 2.7496-227.1-52.588-26.525-23.238-47.536-52.238-64.611-82.926-1.5-1.0375-5.0504-2.7363-4.9629 1.1387-31.962 60.025-84.564 111.19-150.01 132.69-42.612 14.338-89.175 14.825-132.6 3.8125-70.912-18.712-128.96-71.875-162.94-135.81-0.8312-1.3235-1.519-4.4472-3.2773-4.3028z" />
          <path
             id="path4741"
             fill="#ffaa01"
             d="m-516.47-7125c-2.857 0-5.7153 0.026-8.5762 0.068-165.55 2.4125-331.55 76.362-434.71 207.44-55.15 68.625-90.85 154.71-90.213 243.58-9.675 92.462 43.738 187.12 127.99 226.22 83.288 42.75 191.64 23.761 257.6-41.951 42.762-41.838 69.987-100.59 69.125-160.96 2.375-74.213-36.762-146.98-97.225-189.11-56.275-40.262-131.4-52.525-197.45-31.525-3.7 1.9375-7.4633-0.5375-4.1758-4.1875 83.65-92.6 208.06-143.87 331.9-147.01 174.52-5.7125 341.25 78.438 469.67 188.21 28.138-31.425 52.764-67.25 79.727-100.21 3.8625-5.1875-5.1258-7.7512-8.1133-10.639-143.63-104.32-315.56-180.14-495.55-179.92zm313.55 321.62c-5.6104 0.034-11.232 0.2968-16.854 0.8008-93.325 5.7-178.1 74.538-203.11 164.43-26.025 83.925 4.1121 180.42 71.225 236.38 58.225 51.138 144.08 69.076 217.58 43.926 2.95 2.75 0.037 6.7125-1.7754 9.25-91.038 96.825-226.01 147.91-358.25 143.07-164.94-4.05-317.89-84.075-441.24-188.9-27.538 33.612-53.887 71.851-81.699 103.2 141.31 105.58 310.59 183.14 489.36 188.1 126.92 2.725 257.07-34.438 358.67-109.93 92.263-67.488 167.38-165.84 187-280.46 8.175-61.112 11.537-127.3-18.15-183.55-37.123-75.3-118.6-126.8-202.76-126.3zm-596.35 21.652c41.415 0.4667 82.195 22.993 104.78 57.736 38.575 56.112 24.075 141.81-32.75 180.25-48.8 35.862-122.56 30.938-165.71-11.75-36.462-33.675-50.838-89.775-33.963-136.65 15.075-49.475 63.264-86.249 114.79-89.012 4.2785-0.4347 8.5691-0.6225 12.854-0.5742zm576.04 73.719c25.161 0.1677 50.68 6.9562 71.342 21.469 49.725 31.112 71.663 98.412 51.25 153.2-11.425 31.512-34.625 59.275-65.338 73.375-56.162 29.725-133.27 9.5868-166.77-44.488-32.725-48.5-27.039-118.21 12.111-161.41 21.362-23.588 51.862-38.575 83.5-41.562 4.6016-0.416 9.2488-0.6111 13.908-0.58z" />
          <path
             id="path4743"
             fill="#4b0ab3"
             d="m-965.98-6009.1c38.7 22.638 77.338 45.912 117.19 66.488-53.925 141.36-53.838 305.21 6.4125 444.76 0.8875 5.0125 8.7625 7.1625 10.688 1.8 52.338-99.338 128.79-189.8 230.18-241.12 29.95-13.462 61.225-25.025 94.138-28.325 88.175-13.088 179.86 26.05 235.88 94.35 51.562 58.312 78.4 139.02 67.462 216.52-19.4 150.22-169.41 263.81-318.51 253.25-93.025-6.975-184.79-37.862-261.5-91.212-2.75-0.475-8.4625-1.3375-4.875 5.4375-7.5 101.84 22.775 206.89 86.712 286.76-44.012 29.562-91.625 56.338-137.22 83.475-68.512-138.79-84.975-304.31-41.588-453.56 3.575-6.95 1.8-13.5-3.8875-18.55-68.388-86.162-107.04-193.38-119.14-302.14 2.9-9.1125-7.025-7.95-8.925-2.375-69 110.95-138.66 221.9-200.34 337.11-41.95 76.675-79.362 157.2-120.51 233.32-2.2-65.438 2.925-135.66 3.3625-202.99 3.4125-102.06-9.9875-208.9-60.562-299.28-14.888-25.05-33.538-47.825-55.85-66.65-52-41.25-122.36-51.888-186.86-44.762-0.475-54.1-3.5875-108.2-3.3625-162.31 94.312-0.4 191.46 27.462 263.7 89.838 87.838 75.088 129.36 191.02 138.7 303.58-0.225 3.525 1.925 6.6625 5.725 5.125 75.538-134.49 146.26-272.01 215.32-409.98 18.227-36.895 28.452-68.842 47.675-98.575m438.19 353.14c-70.025 6.3875-128.48 54.125-167.85 109.68-32.1 44.325-56.662 94.025-72.462 146.4-2.0125 5.2125 4.1125 7.725 7.15 10.725 48.55 41.938 111.85 64.138 175.35 68.4 43.325 1.7375 88.8 3.15 129.85-13.15 58.438-21.162 106.04-73.738 115.44-135.88 5-38.238-8.4125-76.25-30.825-106.75-33.812-51.062-93.575-88.55-156.65-79.425z" />
        </g>
      </g>
    </pattern>
  </defs>
  <sodipodi:namedview
     id="base"
     pagecolor="#ffffff"
     bordercolor="#666666"
     borderopacity="1.0"
     inkscape:pageopacity="0.0"
     inkscape:pageshadow="2"
     inkscape:zoom="0.35"
     inkscape:cx="474.87064"
     inkscape:cy="-105.71427"
     inkscape:document-units="mm"
     inkscape:current-layer="layer1"
     showgrid="false"
     inkscape:window-width="1920"
     inkscape:window-height="1017"
     inkscape:window-x="1592"
     inkscape:window-y="-8"
     inkscape:window-maximized="1"
     fit-margin-top="0"
     fit-margin-left="0"
     fit-margin-right="0"
     fit-margin-bottom="0" />
  <metadata
     id="metadata5">
    <rdf:RDF>
      <cc:Work
         rdf:about="">
        <dc:format>image/svg+xml</dc:format>
        <dc:type
           rdf:resource="http://purl.org/dc/dcmitype/StillImage" />
        <dc:title></dc:title>
      </cc:Work>
    </rdf:RDF>
  </metadata>
  <g
     inkscape:label="Livello 1"
     inkscape:groupmode="layer"
     id="layer1"
     transform="translate(-16.630952,-77.240032)">
    <text
       xml:space="preserve"
       style="font-style:normal;font-variant:normal;font-weight:normal;font-stretch:normal;font-size:39.76367569px;line-height:1.25;font-family:'English111 Vivace BT';-inkscape-font-specification:'English111 Vivace BT';letter-spacing:0px;word-spacing:0px;fill:#000000;fill-opacity:1;stroke:none;stroke-width:0.93196112"
       x="15.412023"
       y="99.773788"
       id="text3715"
       transform="scale(0.91241885,1.0959879)"
       inkscape:export-filename="M:\Dati_Utente\mperricone\Desktop\bitmap.png"
       inkscape:export-xdpi="72"
       inkscape:export-ydpi="72"><tspan
         sodipodi:role="line"
         id="tspan3713"
         x="15.412023"
         y="99.773788"
         style="font-style:normal;font-variant:normal;font-weight:normal;font-stretch:normal;font-size:39.76367569px;font-family:'English111 Vivace BT';-inkscape-font-specification:'English111 Vivace BT';stroke-width:0.93196112">Lo Scorpione</tspan></text>
    <flowRoot
       xml:space="preserve"
       id="flowRoot3717"
       style="font-style:normal;font-weight:normal;font-size:40px;line-height:1.25;font-family:sans-serif;letter-spacing:0px;word-spacing:0px;fill:#000000;fill-opacity:1;stroke:none"
       transform="matrix(0.34138019,0,0,0.26458331,0,2.98684e-5)"><flowRegion
         id="flowRegion3719"><rect
           id="rect3721"
           width="477.14285"
           height="177.14285"
           x="74.285713"
           y="219.66254" /></flowRegion><flowPara
         id="flowPara3723"></flowPara></flowRoot>  </g>
</svg>
